<?xml version="1.0" encoding="utf-8"?>
<!-- Generator: Adobe Illustrator 23.0.1, SVG Export Plug-In . SVG Version: 6.00 Build 0)  -->
<svg version="1.1" id="Layer_1" xmlns="http://www.w3.org/2000/svg" xmlns:xlink="http://www.w3.org/1999/xlink" x="0px" y="0px"
	 viewBox="0 0 24 24" style="enable-background:new 0 0 24 24;" xml:space="preserve">
<style type="text/css">
	.st0{fill:#FFFFFF;}
</style>
<path class="st0" d="M19.1,4.9C17.2,3,14.7,2,12,2C6.5,2,2,6.5,2,12c0,1.8,0.5,3.5,1.3,5L2,22l5.2-1.2C8.7,21.6,10.3,22,12,22h0
	c5.5,0,10-4.5,10-10C22,9.3,21,6.8,19.1,4.9z M16.9,15.6c-0.2,0.6-1.2,1.1-1.7,1.2c-0.5,0-0.9,0.2-3-0.6c-2.5-1-4.1-3.6-4.3-3.8
	c-0.1-0.2-1-1.4-1-2.6s0.6-1.8,0.9-2.1C8,7.4,8.3,7.4,8.5,7.4c0.2,0,0.3,0,0.5,0c0.2,0,0.4,0,0.6,0.4c0.2,0.5,0.7,1.7,0.8,1.9
	s0.1,0.3,0,0.4s-0.1,0.3-0.2,0.4c-0.1,0.1-0.3,0.3-0.4,0.4c-0.1,0.1-0.3,0.3-0.1,0.5c0.1,0.3,0.6,1.1,1.4,1.7c1,0.9,1.8,1.1,2,1.2
	c0.3,0.1,0.4,0.1,0.5-0.1c0.1-0.2,0.6-0.7,0.8-1s0.3-0.2,0.6-0.1s1.5,0.7,1.7,0.8c0.3,0.1,0.4,0.2,0.5,0.3
	C17.1,14.5,17.1,15,16.9,15.6z"/>
</svg>
